# xmcd CD database file
#
# Track frame offsets:
#	150
#	12116
#	29352
#	47811
#	63599
#	77186
#	108494
#	126108
#	142624
#	158389
#	175895
#	197781
#	212937
#	224917
#
# Disc length: 3260 seconds
#
# Revision: 0
# Processed by: cddbd v1.5.1PL0 Copyright (c) Steve Scherf et al.
# Submitted via: CDex 1.50
#
DISCID=c70cba0e
DTITLE=Blues Blend - Confused
DYEAR=2004
DGENRE=Blues
TTITLE0=Jumpin´ From Six To Six
TTITLE1=Confused
TTITLE2=My Home
TTITLE3=What Kind Of Love Is This
TTITLE4=Sidetracked
TTITLE5=Perfect Day For The Blues
TTITLE6=Love Me Someday
TTITLE7=Chuck-A-Boogie
TTITLE8=I Love No More
TTITLE9=Somethin´ Ain´t Right
TTITLE10=Heavy Drinkin´ Woman
TTITLE11=I´m Gonna Shoot Her
TTITLE12=Get Up
TTITLE13=Walmart
EXTD=YEAR: 2004
EXTT0=
EXTT1=
EXTT2=
EXTT3=
EXTT4=
EXTT5=
EXTT6=
EXTT7=
EXTT8=
EXTT9=
EXTT10=
EXTT11=
EXTT12=
EXTT13=
PLAYORDER=
